PathFileType	4	(X/Y/Z)	C:\Users\86182\Documents\cortex\Trimmed_M4_H13.trc
DataRate	CameraRate	NumFrames	NumMarkers	Units	OrigDataRate	OrigDataStartFrame	OrigNumFrames
100.00	100.00	       126	2	mm	100.00	541	       901
Frame#	Time	gripper			box			
		X1	Y1	Z1	X2	Y2	Z2	

541	5.400	276.05087	151.12326	292.32584	278.09250	147.77238	156.76398	
542	5.410	276.05417	151.12244	292.32489	278.09152	147.77115	156.75769	
543	5.420	276.06186	151.12080	292.32227	278.08789	147.77155	156.74806	
544	5.430	276.07312	151.11853	292.31824	278.08270	147.77290	156.73566	
545	5.440	276.08624	151.11592	292.31351	278.07755	147.77454	156.72215	
546	5.450	276.09906	151.11339	292.30884	278.07394	147.77606	156.70987	
547	5.460	276.10956	151.11133	292.30499	278.07312	147.77737	156.70107	
548	5.470	276.11642	151.10999	292.30249	278.07538	147.77856	156.69725	
549	5.480	276.11877	151.10950	292.30167	278.08026	147.77982	156.69879	
550	5.490	276.11639	151.10994	292.30261	278.08673	147.78131	156.70494	
551	5.500	276.10965	151.11127	292.30505	278.09323	147.78333	156.71378	
552	5.510	276.09970	151.11330	292.30856	278.09781	147.78622	156.72302	
553	5.520	276.08813	151.11575	292.31250	278.09860	147.79019	156.73083	
554	5.530	276.07660	151.11829	292.31635	278.09464	147.79517	156.73607	
555	5.540	276.06656	151.12057	292.31949	278.08585	147.80096	156.73811	
556	5.550	276.05896	151.12244	292.32172	278.07349	147.80707	156.73698	
557	5.560	276.05414	151.12370	292.32300	278.06021	147.81250	156.73366	
558	5.570	276.05191	151.12433	292.32355	278.04898	147.81648	156.72989	
559	5.580	276.05185	151.12434	292.32355	278.04144	147.81891	156.72737	
560	5.590	276.05310	151.12392	292.32339	278.03809	147.81992	156.72696	
561	5.600	276.05505	151.12318	292.32318	278.03864	147.81963	156.72847	
562	5.610	276.05743	151.12230	292.32294	278.04239	147.81805	156.73114	
563	5.620	276.06021	151.12134	292.32254	278.04877	147.81517	156.73390	
564	5.630	276.06357	151.12033	292.32184	278.05716	147.81094	156.73566	
565	5.640	276.06763	151.11931	292.32068	278.06671	147.80565	156.73541	
566	5.650	276.07248	151.11826	292.31906	278.07629	147.79985	156.73271	
567	5.660	276.07764	151.11726	292.31717	278.08530	147.79396	156.72797	
568	5.670	276.08234	151.11641	292.31534	278.09351	147.78809	156.72250	
569	5.680	276.08551	151.11588	292.31403	278.10092	147.78246	156.71812	
570	5.690	276.08630	151.11575	292.31369	278.10733	147.77753	156.71619	
571	5.700	276.08429	151.11613	292.31445	278.11249	147.77396	156.71698	
572	5.710	276.07968	151.11702	292.31616	278.11572	147.77231	156.71973	
573	5.720	276.07327	151.11832	292.31848	278.11615	147.77290	156.72298	
574	5.730	276.06613	151.11986	292.32086	278.11310	147.77556	156.72528	
575	5.740	276.05951	151.12141	292.32291	278.10663	147.77985	156.72554	
576	5.750	276.05414	151.12277	292.32440	278.09720	147.78531	156.72325	
577	5.760	276.05038	151.12384	292.32532	278.08572	147.79137	156.71869	
578	5.770	276.04791	151.12462	292.32574	278.07394	147.79706	156.71283	
579	5.780	276.04617	151.12520	292.32605	278.06390	147.80135	156.70709	
580	5.790	276.04462	151.12566	292.32639	278.05750	147.80344	156.70297	
581	5.800	276.04309	151.12596	292.32693	278.05606	147.80292	156.70183	
582	5.810	276.04205	151.12595	292.32761	278.06058	147.79951	156.70432	
583	5.820	276.04214	151.12553	292.32819	278.07129	147.79320	156.71011	
584	5.830	276.04379	151.12469	292.32837	278.08728	147.78453	156.71764	
585	5.840	276.04691	151.12354	292.32800	278.10593	147.77481	156.72452	
586	5.850	276.05118	151.12225	292.32712	278.12366	147.76575	156.72839	
587	5.860	276.05621	151.12099	292.32571	278.13736	147.75882	156.72809	
588	5.870	276.06171	151.11983	292.32379	278.14523	147.75485	156.72395	
589	5.880	276.06763	151.11880	292.32144	278.14722	147.75385	156.71748	
590	5.890	276.07370	151.11790	292.31879	278.14465	147.75522	156.71065	
591	5.900	276.07919	151.11725	292.31616	278.13928	147.75826	156.70526	
592	5.910	276.08301	151.11694	292.31409	278.13263	147.76218	156.70264	
593	5.920	276.08426	151.11708	292.31305	278.12607	147.76633	156.70348	
594	5.930	276.08246	151.11768	292.31335	278.12048	147.77013	156.70753	
595	5.940	276.07761	151.11873	292.31500	278.11618	147.77322	156.71373	
596	5.950	276.07022	151.12019	292.31766	278.11313	147.77545	156.72061	
597	5.960	276.06131	151.12193	292.32095	278.11127	147.77669	156.72685	
598	5.970	276.05246	151.12361	292.32428	278.11047	147.77690	156.73137	
599	5.980	276.04553	151.12486	292.32697	278.11047	147.77611	156.73338	
600	5.990	276.04193	151.12540	292.32852	278.11084	147.77452	156.73276	
601	6.000	276.04205	151.12517	292.32877	278.11111	147.77264	156.73010	
602	6.010	276.04532	151.12433	292.32788	278.11115	147.77095	156.72643	
603	6.020	276.05063	151.12312	292.32617	278.11136	147.76956	156.72278	
604	6.030	276.05695	151.12177	292.32404	278.11285	147.76796	156.72009	
605	6.040	276.06375	151.12032	292.32172	278.11688	147.76538	156.71904	
606	6.050	276.07071	151.11874	292.31949	278.12372	147.76161	156.71977	
607	6.060	276.07739	151.11708	292.31757	278.13239	147.75728	156.72208	
608	6.070	276.08307	151.11546	292.31625	278.14133	147.75334	156.72554	
609	6.080	276.08713	151.11406	292.31567	278.14911	147.75058	156.72986	
610	6.090	276.08929	151.11304	292.31580	278.15463	147.74942	156.73470	
611	6.100	276.08966	151.11250	292.31638	278.15683	147.75020	156.73932	
612	6.110	276.08856	151.11243	292.31720	278.15475	147.75320	156.74268	
613	6.120	276.08655	151.11273	292.31808	278.14777	147.75865	156.74417	
614	6.130	276.08405	151.11330	292.31891	278.13614	147.76642	156.74413	
615	6.140	276.08112	151.11406	292.31967	278.12122	147.77577	156.74344	
616	6.150	276.07761	151.11505	292.32053	278.10547	147.78539	156.74297	
617	6.160	276.07358	151.11617	292.32150	278.09137	147.79384	156.74321	
618	6.170	276.06973	151.11722	292.32245	278.08075	147.80017	156.74454	
619	6.180	276.06686	151.11800	292.32318	278.07440	147.80408	156.74718	
620	6.190	276.06531	151.11841	292.32355	278.07272	147.80544	156.75101	
621	6.200	276.06488	151.11852	292.32370	278.07587	147.80405	156.75545	
622	6.210	276.06512	151.11841	292.32367	278.08301	147.80022	156.75974	
623	6.220	276.06601	151.11810	292.32355	278.09210	147.79509	156.76311	
624	6.230	276.06757	151.11763	292.32327	278.10135	147.78967	156.76491	
625	6.240	276.06985	151.11693	292.32278	278.11050	147.78406	156.76483	
626	6.250	276.07309	151.11598	292.32208	278.12003	147.77794	156.76314	
627	6.260	276.07727	151.11478	292.32114	278.12973	147.77168	156.76047	
628	6.270	276.08188	151.11346	292.32007	278.13870	147.76599	156.75771	
629	6.280	276.08609	151.11227	292.31909	278.14621	147.76128	156.75568	
630	6.290	276.08920	151.11139	292.31836	278.15176	147.75771	156.75493	
631	6.300	276.09079	151.11092	292.31799	278.15497	147.75543	156.75523	
632	6.310	276.09076	151.11093	292.31799	278.15588	147.75436	156.75598	
633	6.320	276.08899	151.11140	292.31842	278.15457	147.75446	156.75661	
634	6.330	276.08569	151.11232	292.31921	278.15033	147.75618	156.75656	
635	6.340	276.08115	151.11359	292.32034	278.14273	147.76010	156.75531	
636	6.350	276.07574	151.11508	292.32166	278.13263	147.76590	156.75266	
637	6.360	276.07034	151.11658	292.32297	278.12195	147.77254	156.74899	
638	6.370	276.06586	151.11783	292.32407	278.11267	147.77876	156.74519	
639	6.380	276.06302	151.11862	292.32477	278.10611	147.78345	156.74207	
640	6.390	276.06204	151.11891	292.32498	278.10257	147.78609	156.74016	
641	6.400	276.06256	151.11877	292.32483	278.10123	147.78708	156.73972	
642	6.410	276.06400	151.11839	292.32446	278.10129	147.78700	156.74065	
643	6.420	276.06586	151.11789	292.32397	278.10287	147.78581	156.74248	
644	6.430	276.06808	151.11728	292.32343	278.10651	147.78317	156.74440	
645	6.440	276.07077	151.11653	292.32278	278.11163	147.77953	156.74603	
646	6.450	276.07358	151.11574	292.32214	278.11688	147.77603	156.74782	
647	6.460	276.07593	151.11507	292.32159	278.12128	147.77350	156.75029	
648	6.470	276.07739	151.11464	292.32126	278.12454	147.77194	156.75336	
649	6.480	276.07770	151.11455	292.32120	278.12653	147.77121	156.75632	
650	6.490	276.07654	151.11485	292.32147	278.12656	147.77148	156.75862	
651	6.500	276.07391	151.11559	292.32211	278.12402	147.77304	156.75992	
652	6.510	276.07031	151.11659	292.32300	278.11887	147.77592	156.76004	
653	6.520	276.06638	151.11772	292.32391	278.11176	147.77965	156.75897	
654	6.530	276.06259	151.11880	292.32474	278.10382	147.78351	156.75674	
655	6.540	276.05930	151.11980	292.32544	278.09607	147.78697	156.75348	
656	6.550	276.05658	151.12064	292.32596	278.08908	147.78983	156.74942	
657	6.560	276.05457	151.12131	292.32629	278.08344	147.79199	156.74496	
658	6.570	276.05331	151.12172	292.32648	278.07953	147.79346	156.74062	
659	6.580	276.05310	151.12181	292.32651	278.07764	147.79420	156.73686	
660	6.590	276.05417	151.12148	292.32632	278.07809	147.79404	156.73428	
661	6.600	276.05670	151.12070	292.32581	278.08115	147.79268	156.73340	
662	6.610	276.06061	151.11954	292.32501	278.08667	147.79001	156.73438	
663	6.620	276.06537	151.11818	292.32388	278.09433	147.78590	156.73701	
664	6.630	276.07040	151.11682	292.32263	278.10358	147.78047	156.74069	
665	6.640	276.07504	151.11563	292.32135	278.11368	147.77417	156.74463	
666	6.650	276.07889	151.11475	292.32013	278.12375	147.76770	156.74818	
